<svg width="37" height="37" viewBox="0 0 37 37" fill="none" xmlns="http://www.w3.org/2000/svg">
<path d="M34.5156 9.2131C32.8614 6.37885 30.6176 4.13496 27.7836 2.48094C24.9491 0.826841 21.8548 0 18.4983 0C15.1423 0 12.0469 0.827094 9.2131 2.48094C6.37885 4.13488 4.13513 6.37885 2.48094 9.2131C0.827009 12.0473 0 15.1422 0 18.4978C0 22.5287 1.17602 26.1533 3.52865 29.3727C5.88102 32.5923 8.91994 34.8202 12.6452 36.0565C13.0788 36.137 13.3998 36.0804 13.6085 35.8881C13.8173 35.6956 13.9216 35.4545 13.9216 35.1658C13.9216 35.1177 13.9174 34.6843 13.9094 33.8652C13.9011 33.0461 13.8973 32.3316 13.8973 31.7219L13.3433 31.8177C12.99 31.8824 12.5444 31.9098 12.0064 31.9021C11.4687 31.8946 10.9105 31.8382 10.3325 31.7334C9.75429 31.6296 9.21648 31.3887 8.71865 31.0114C8.22108 30.634 7.86785 30.1401 7.65905 29.5303L7.4182 28.976C7.25765 28.607 7.0049 28.1971 6.65961 27.7478C6.31431 27.2981 5.96513 26.9932 5.6119 26.8326L5.44326 26.7119C5.33089 26.6317 5.22662 26.5349 5.13019 26.4226C5.03385 26.3103 4.96172 26.198 4.91355 26.0854C4.86529 25.9728 4.90528 25.8804 5.03393 25.808C5.16259 25.7355 5.39509 25.7003 5.73246 25.7003L6.214 25.7723C6.53517 25.8366 6.93244 26.0289 7.4063 26.3502C7.87992 26.6713 8.26925 27.0888 8.57439 27.6024C8.9439 28.2609 9.38908 28.7627 9.91121 29.108C10.4329 29.4533 10.9589 29.6256 11.4887 29.6256C12.0185 29.6256 12.4761 29.5855 12.8616 29.5056C13.2467 29.4253 13.6081 29.3045 13.9454 29.1441C14.09 28.0678 14.4834 27.2409 15.1255 26.663C14.2103 26.5668 13.3875 26.422 12.6567 26.2294C11.9263 26.0365 11.1715 25.7235 10.3928 25.2895C9.61374 24.8562 8.96744 24.318 8.45375 23.676C7.93998 23.0337 7.51834 22.1904 7.18941 21.1469C6.86031 20.103 6.69571 18.8988 6.69571 17.534C6.69571 15.5907 7.33012 13.937 8.59869 12.572C8.00444 11.111 8.06054 9.47319 8.76716 7.65872C9.23284 7.51403 9.92344 7.62261 10.8386 7.98377C11.7539 8.34509 12.4241 8.65462 12.8498 8.91125C13.2755 9.1678 13.6166 9.3852 13.8736 9.56152C15.3672 9.14418 16.9086 8.93546 18.4982 8.93546C20.0877 8.93546 21.6295 9.14418 23.1232 9.56152L24.0384 8.98372C24.6643 8.59818 25.4034 8.24487 26.254 7.9237C27.105 7.6027 27.7558 7.51429 28.2056 7.65897C28.9279 9.47353 28.9923 11.1113 28.3979 12.5723C29.6664 13.9373 30.301 15.5914 30.301 17.5342C30.301 18.8991 30.1359 20.1071 29.8073 21.159C29.4782 22.2111 29.053 23.0535 28.5313 23.6881C28.009 24.3226 27.3585 24.8565 26.5799 25.2898C25.801 25.7234 25.046 26.0364 24.3156 26.2293C23.5848 26.4221 22.762 26.5671 21.8469 26.6634C22.6816 27.3857 23.099 28.5259 23.099 30.0834V35.1652C23.099 35.4538 23.1994 35.6949 23.4003 35.8875C23.601 36.0797 23.918 36.1363 24.3516 36.0558C28.0773 34.8196 31.1162 32.5917 33.4685 29.372C35.8206 26.1527 36.997 22.528 36.997 18.4972C36.9962 15.142 36.1687 12.0473 34.5156 9.2131Z" fill="white"/>
</svg>
