<svg width="29" height="29" viewBox="0 0 29 29" fill="none" xmlns="http://www.w3.org/2000/svg">
<path d="M27.0521 7.22092C25.7556 4.99953 23.997 3.24084 21.7758 1.94448C19.5543 0.64805 17.1291 0 14.4984 0C11.868 0 9.44198 0.648248 7.22092 1.94448C4.99953 3.24078 3.24098 4.99953 1.94448 7.22092C0.648182 9.44225 0 11.868 0 14.498C0 17.6572 0.921724 20.4981 2.76563 23.0213C4.60935 25.5448 6.99115 27.2909 9.91084 28.2599C10.2507 28.323 10.5023 28.2786 10.6659 28.1279C10.8295 27.977 10.9113 27.7881 10.9113 27.5618C10.9113 27.524 10.908 27.1844 10.9017 26.5424C10.8953 25.9004 10.8922 25.3404 10.8922 24.8625L10.458 24.9377C10.1811 24.9884 9.8319 25.0099 9.41024 25.0038C8.98879 24.9979 8.55127 24.9537 8.09828 24.8716C7.64508 24.7902 7.22356 24.6014 6.83338 24.3057C6.4434 24.0099 6.16656 23.6228 6.00291 23.1449L5.81413 22.7104C5.68831 22.4212 5.49021 22.0999 5.21958 21.7478C4.94894 21.3953 4.67527 21.1563 4.39842 21.0305L4.26625 20.9359C4.17817 20.873 4.09645 20.7972 4.02087 20.7092C3.94536 20.6212 3.88883 20.5331 3.85107 20.4449C3.81325 20.3566 3.84459 20.2842 3.94543 20.2274C4.04626 20.1706 4.22849 20.143 4.49291 20.143L4.87032 20.1994C5.12205 20.2499 5.43341 20.4006 5.80481 20.6524C6.17601 20.9041 6.48116 21.2313 6.72032 21.6338C7.00993 22.1499 7.35885 22.5432 7.76807 22.8139C8.17696 23.0845 8.58922 23.2196 9.00446 23.2196C9.4197 23.2196 9.77834 23.1881 10.0805 23.1255C10.3824 23.0625 10.6655 22.9679 10.93 22.8422C11.0432 21.9986 11.3516 21.3505 11.8549 20.8975C11.1376 20.8222 10.4927 20.7086 9.9199 20.5577C9.34743 20.4065 8.75585 20.1612 8.14555 19.8211C7.53493 19.4814 7.02838 19.0596 6.62577 18.5565C6.22309 18.053 5.89262 17.3921 5.63481 16.5742C5.37688 15.7561 5.24787 14.8122 5.24787 13.7425C5.24787 12.2195 5.7451 10.9234 6.73936 9.85352C6.27361 8.70844 6.31758 7.42477 6.8714 6.00264C7.23639 5.88925 7.77766 5.97434 8.49493 6.25741C9.21235 6.5406 9.73761 6.7832 10.0713 6.98434C10.4049 7.18541 10.6722 7.35581 10.8736 7.494C12.0443 7.1669 13.2524 7.00332 14.4982 7.00332C15.7441 7.00332 16.9524 7.1669 18.1232 7.494L18.8405 7.04114C19.3311 6.73896 19.9104 6.46205 20.577 6.21033C21.244 5.95874 21.7541 5.88944 22.1066 6.00284C22.6728 7.42503 22.7232 8.70864 22.2573 9.85372C23.2515 10.9236 23.7489 12.22 23.7489 13.7427C23.7489 14.8124 23.6195 15.7592 23.3619 16.5837C23.1041 17.4083 22.7707 18.0686 22.3619 18.5659C21.9525 19.0632 21.4427 19.4817 20.8324 19.8213C20.222 20.1612 19.6302 20.4065 19.0577 20.5576C18.485 20.7088 17.8401 20.8224 17.1228 20.8979C17.777 21.464 18.1042 22.3576 18.1042 23.5783V27.5613C18.1042 27.7875 18.1829 27.9764 18.3404 28.1274C18.4977 28.2781 18.7461 28.3224 19.086 28.2593C22.0061 27.2904 24.3879 25.5442 26.2315 23.0208C28.075 20.4976 28.997 17.6567 28.997 14.4974C28.9963 11.8678 28.3478 9.44225 27.0521 7.22092Z" fill="#A09C9C"/>
</svg>
